<svg width="32" height="32" fill="none" xmlns="http://www.w3.org/2000/svg" style="
    fill: #f700d4;
    color: #f700d4;
"><path fill-rule="evenodd" clip-rule="evenodd" d="M29 13.752c0 4.213 0 6.32-1.011 7.833a6 6 0 0 1-1.656 1.656c-1.351.903-3.176 1-6.552 1.01l-2.055 3.508c-.773 1.319-2.68 1.319-3.452 0L12.22 24.25c-3.376-.01-5.2-.107-6.552-1.01a6.001 6.001 0 0 1-1.656-1.656C3 20.072 3 17.965 3 13.752s0-6.32 1.011-7.833a6 6 0 0 1 1.656-1.656C7.18 3.252 9.287 3.252 13.5 3.252h5c4.213 0 6.32 0 7.833 1.011.656.438 1.218 1 1.656 1.656C29 7.432 29 9.539 29 13.752Zm-7.298.707c.207-.31.38-.655.483-1 .07-.276.138-.586.104-.897a3.311 3.311 0 0 0-3.31-3.31c-1.311 0-2.45.793-2.966 1.896h-.035a3.298 3.298 0 0 0-2.965-1.896c-.897 0-1.69.345-2.276.931a3.487 3.487 0 0 0-.966 1.828c-.034.172-.069.344-.069.551 0 .31.07.621.173.931.103.38.276.724.517 1.035l.035.034v.035c.068.103.172.241.31.414.62.827 1.965 2.31 4.586 4.24h1.414c3.38-2.482 4.655-4.24 4.965-4.792Z" fill="currentColor"></path></svg>